<svg width="169" height="48" viewBox="0 0 169 48" fill="none" xmlns="http://www.w3.org/2000/svg">
<path d="M28.475 28V17.785H22.49V28H21.275V16.75H29.69V28H28.475ZM35.6267 20.35C36.1367 20.35 36.6117 20.445 37.0517 20.635C37.5017 20.825 37.8917 21.095 38.2217 21.445C38.5617 21.785 38.8267 22.195 39.0167 22.675C39.2067 23.155 39.3017 23.68 39.3017 24.25C39.3017 24.82 39.2067 25.345 39.0167 25.825C38.8267 26.305 38.5667 26.72 38.2367 27.07C37.9067 27.41 37.5167 27.675 37.0667 27.865C36.6167 28.055 36.1367 28.15 35.6267 28.15C35.1167 28.15 34.6367 28.055 34.1867 27.865C33.7367 27.675 33.3467 27.41 33.0167 27.07C32.6867 26.72 32.4217 26.305 32.2217 25.825C32.0317 25.345 31.9367 24.82 31.9367 24.25C31.9367 23.68 32.0317 23.155 32.2217 22.675C32.4217 22.195 32.6867 21.785 33.0167 21.445C33.3467 21.095 33.7367 20.825 34.1867 20.635C34.6367 20.445 35.1167 20.35 35.6267 20.35ZM35.6417 21.13C34.9317 21.13 34.3467 21.4 33.8867 21.94C33.4367 22.47 33.2117 23.24 33.2117 24.25C33.2117 25.19 33.4367 25.945 33.8867 26.515C34.3467 27.085 34.9317 27.37 35.6417 27.37C36.3617 27.37 36.9367 27.085 37.3667 26.515C37.8067 25.945 38.0267 25.19 38.0267 24.25C38.0267 23.24 37.8067 22.47 37.3667 21.94C36.9367 21.4 36.3617 21.13 35.6417 21.13ZM41.4633 28V20.5H42.9783L45.7083 26.41L48.4233 20.5H49.8783V28H48.7683V22.03L45.9783 28H45.3183L42.5433 22.03V28H41.4633ZM55.7288 20.35C56.2388 20.35 56.7138 20.445 57.1538 20.635C57.6038 20.825 57.9938 21.095 58.3238 21.445C58.6638 21.785 58.9288 22.195 59.1188 22.675C59.3088 23.155 59.4038 23.68 59.4038 24.25C59.4038 24.82 59.3088 25.345 59.1188 25.825C58.9288 26.305 58.6688 26.72 58.3388 27.07C58.0088 27.41 57.6188 27.675 57.1688 27.865C56.7188 28.055 56.2388 28.15 55.7288 28.15C55.2188 28.15 54.7388 28.055 54.2888 27.865C53.8388 27.675 53.4488 27.41 53.1188 27.07C52.7888 26.72 52.5238 26.305 52.3238 25.825C52.1338 25.345 52.0388 24.82 52.0388 24.25C52.0388 23.68 52.1338 23.155 52.3238 22.675C52.5238 22.195 52.7888 21.785 53.1188 21.445C53.4488 21.095 53.8388 20.825 54.2888 20.635C54.7388 20.445 55.2188 20.35 55.7288 20.35ZM55.7438 21.13C55.0338 21.13 54.4488 21.4 53.9888 21.94C53.5388 22.47 53.3138 23.24 53.3138 24.25C53.3138 25.19 53.5388 25.945 53.9888 26.515C54.4488 27.085 55.0338 27.37 55.7438 27.37C56.4638 27.37 57.0388 27.085 57.4688 26.515C57.9088 25.945 58.1288 25.19 58.1288 24.25C58.1288 23.24 57.9088 22.47 57.4688 21.94C57.0388 21.4 56.4638 21.13 55.7438 21.13ZM61.1489 22.6V20.5H62.2889V22.6C62.2889 23.25 62.4339 23.695 62.7239 23.935C63.0239 24.175 63.5089 24.295 64.1789 24.295C64.4589 24.295 64.7739 24.28 65.1239 24.25C65.4739 24.22 65.7239 24.19 65.8739 24.16V20.5H67.0139V28H65.8739V24.97C65.8139 24.98 65.7139 24.995 65.5739 25.015C65.4439 25.025 65.2989 25.04 65.1389 25.06C64.9789 25.07 64.8139 25.08 64.6439 25.09C64.4739 25.1 64.3189 25.105 64.1789 25.105C63.5789 25.105 63.0839 25.055 62.6939 24.955C62.3039 24.845 61.9939 24.685 61.7639 24.475C61.5339 24.265 61.3739 24.005 61.2839 23.695C61.1939 23.375 61.1489 23.01 61.1489 22.6ZM75.272 25.51C75.272 26.22 75.047 26.815 74.597 27.295C74.147 27.765 73.377 28 72.287 28H69.617V20.5H70.757V23.26H72.437C72.817 23.26 73.177 23.305 73.517 23.395C73.867 23.485 74.172 23.625 74.432 23.815C74.692 23.995 74.897 24.23 75.047 24.52C75.197 24.8 75.272 25.13 75.272 25.51ZM74.132 25.51C74.132 25.07 73.977 24.72 73.667 24.46C73.367 24.2 72.872 24.07 72.182 24.07H70.757V27.19H72.152C72.852 27.19 73.357 27.055 73.667 26.785C73.977 26.505 74.132 26.08 74.132 25.51ZM82.2065 24.55C82.1665 25.23 82.1065 25.79 82.0265 26.23C81.9565 26.67 81.8715 26.99 81.7715 27.19H85.6265V21.31H82.4165L82.2065 24.55ZM81.2315 24.49L81.4715 20.5H86.7665V27.19H87.9065V30.25H86.9165V28H80.8565V30.25H79.8665V27.19H80.7065C80.8265 27 80.9315 26.675 81.0215 26.215C81.1215 25.745 81.1915 25.17 81.2315 24.49ZM96.2269 25.06C96.2069 25.41 96.1219 25.77 95.9719 26.14C95.8219 26.5 95.6069 26.83 95.3269 27.13C95.0469 27.43 94.6919 27.675 94.2619 27.865C93.8319 28.055 93.3319 28.15 92.7619 28.15C92.1819 28.15 91.6669 28.055 91.2169 27.865C90.7669 27.665 90.3869 27.395 90.0769 27.055C89.7769 26.715 89.5469 26.31 89.3869 25.84C89.2369 25.36 89.1619 24.85 89.1619 24.31C89.1619 23.13 89.4919 22.175 90.1519 21.445C90.8119 20.715 91.6769 20.35 92.7469 20.35C93.8569 20.35 94.7119 20.69 95.3119 21.37C95.9119 22.05 96.2169 22.975 96.2269 24.145H90.4519C90.4519 24.175 90.4519 24.205 90.4519 24.235C90.4519 24.265 90.4519 24.3 90.4519 24.34C90.4519 25.27 90.6519 26 91.0519 26.53C91.4519 27.06 92.0269 27.325 92.7769 27.325C93.5469 27.325 94.0969 27.1 94.4269 26.65C94.7669 26.2 94.9669 25.67 95.0269 25.06H96.2269ZM92.7619 21.175C92.1319 21.175 91.6169 21.375 91.2169 21.775C90.8269 22.175 90.5869 22.78 90.4969 23.59H94.9369C94.9369 23.29 94.8969 22.995 94.8169 22.705C94.7369 22.415 94.6119 22.16 94.4419 21.94C94.2719 21.71 94.0469 21.525 93.7669 21.385C93.4869 21.245 93.1519 21.175 92.7619 21.175ZM99.5355 28H98.3955V20.5H99.5355V23.77H103.391V20.5H104.531V28H103.391V24.58H99.5355V28ZM112.791 25.51C112.791 26.22 112.566 26.815 112.116 27.295C111.666 27.765 110.896 28 109.806 28H107.136V20.5H108.276V23.26H109.956C110.336 23.26 110.696 23.305 111.036 23.395C111.386 23.485 111.691 23.625 111.951 23.815C112.211 23.995 112.416 24.23 112.566 24.52C112.716 24.8 112.791 25.13 112.791 25.51ZM111.651 25.51C111.651 25.07 111.496 24.72 111.186 24.46C110.886 24.2 110.391 24.07 109.701 24.07H108.276V27.19H109.671C110.371 27.19 110.876 27.055 111.186 26.785C111.496 26.505 111.651 26.08 111.651 25.51ZM115.873 28H114.733V20.5H119.503V21.31H115.873V28ZM121.926 22.945L120.891 22.615C121.061 21.855 121.416 21.29 121.956 20.92C122.496 20.54 123.186 20.35 124.026 20.35C124.986 20.35 125.696 20.55 126.156 20.95C126.616 21.34 126.846 21.94 126.846 22.75V27.07H128.091V28H125.616L125.706 27.055V26.05L124.701 27.55C124.451 27.75 124.161 27.9 123.831 28C123.511 28.09 123.181 28.135 122.841 28.135C122.251 28.135 121.761 27.955 121.371 27.595C120.981 27.235 120.786 26.73 120.786 26.08C120.786 25.45 120.971 25 121.341 24.73C121.721 24.45 122.166 24.24 122.676 24.1C123.196 23.96 123.736 23.835 124.296 23.725C124.866 23.615 125.336 23.41 125.706 23.11V22.795C125.706 22.305 125.561 21.92 125.271 21.64C124.991 21.35 124.551 21.205 123.951 21.205C123.321 21.205 122.861 21.35 122.571 21.64C122.281 21.92 122.066 22.355 121.926 22.945ZM122.001 25.915C122.001 26.345 122.121 26.68 122.361 26.92C122.611 27.15 122.921 27.265 123.291 27.265C123.781 27.265 124.226 27.12 124.626 26.83C125.036 26.54 125.396 26.06 125.706 25.39V23.32C125.436 23.64 125.091 23.875 124.671 24.025C124.251 24.165 123.841 24.305 123.441 24.445C123.051 24.575 122.711 24.745 122.421 24.955C122.141 25.165 122.001 25.485 122.001 25.915ZM130.118 28V20.5H131.633L134.363 26.41L137.078 20.5H138.533V28H137.423V22.03L134.633 28H133.973L131.198 22.03V28H130.118ZM142.269 28H141.129V20.5H142.269V26.545L146.334 20.5H147.474V28H146.334V21.955L142.269 28Z" fill="#F3F2F2"/>
<rect x="0.5" y="0.5" width="168" height="47" rx="23.5" stroke="#F3F2F2"/>
</svg>
